HIERARCHY
ROOT Beta:Hips
{
	OFFSET 0.00 0.00 0.00
	CHANNELS 6 Xposition Yposition Zposition Yrotation Xrotation Zrotation
	JOINT Beta:Spine
	{
		OFFSET	0.0000	9.2263	1.5771
		CHANNELS 3 Xrotation Yrotation Zrotation
		JOINT Beta:Spine1
		{
			OFFSET	0.0000	16.2540	-0.1656
			CHANNELS 3 Xrotation Yrotation Zrotation
			JOINT Beta:Spine2
			{
				OFFSET	0.0000	13.6396	-1.2923
				CHANNELS 3 Xrotation Yrotation Zrotation
				JOINT Beta:Neck
				{
					OFFSET	0.0000	13.8774	-4.3542
					CHANNELS 3 Xrotation Yrotation Zrotation
					JOINT Beta:Neck1
					{
						OFFSET	0.0000	4.3400	0.9269
						CHANNELS 3 Xrotation Yrotation Zrotation
						JOINT Beta:Head
						{
							OFFSET	0.0000	4.0266	0.8585
							CHANNELS 3 Xrotation Yrotation Zrotation
							End Site
							{
								OFFSET 0.0000 23.0297 0.1231
							}
						}
					}
				}
				JOINT Beta:LeftShoulder
				{
					OFFSET	6.1442	10.1870	-3.7932
					CHANNELS 3 Zrotation Xrotation Yrotation
					JOINT Beta:LeftArm
					{
						OFFSET	12.3191	-1.1130	-1.7935
						CHANNELS 3 Zrotation Xrotation Yrotation
						JOINT Beta:LeftForeArm
						{
							OFFSET	27.6870	0.0000	0.0000
							CHANNELS 3 Xrotation Zrotation Yrotation
							JOINT Beta:LeftHand
							{
								OFFSET	27.8738	0.0000	0.0000
								CHANNELS 3 Zrotation Yrotation Xrotation
								JOINT Beta:LeftHandThumb1
								{
									OFFSET	2.3785	-1.0029	2.6209
									CHANNELS 3 Zrotation Xrotation Yrotation
									JOINT Beta:LeftHandThumb2
									{
										OFFSET	3.3624	-1.0029	2.8398
										CHANNELS 3 Zrotation Xrotation Yrotation
										JOINT Beta:LeftHandThumb3
										{
											OFFSET	4.5018	-1.3445	2.1783
											CHANNELS 3 Zrotation Xrotation Yrotation
											End Site
											{
												OFFSET 2.6000 -1.0000 1.0000
											}
										}
									}
								}
								JOINT Beta:LeftHandMiddle1
								{
									OFFSET	10.4639	0.6148	0.4298
									CHANNELS 3 Zrotation Xrotation Yrotation
									JOINT Beta:LeftHandMiddle2
									{
										OFFSET	5.7921	0.0000	0.0000
										CHANNELS 3 Zrotation Xrotation Yrotation
										JOINT Beta:LeftHandMiddle3
										{
											OFFSET	3.7132	0.0000	0.0000
											CHANNELS 3 Zrotation Xrotation Yrotation
											End Site
											{
												OFFSET 2.3000 0.0000 0.0000
											}
										}
									}
								}
								JOINT Beta:LeftHandIndex1
								{
									OFFSET	10.3945	0.6148	2.7055
									CHANNELS 3 Zrotation Xrotation Yrotation
									JOINT Beta:LeftHandIndex2
									{
										OFFSET	5.5493	0.0000	0.0000
										CHANNELS 3 Zrotation Xrotation Yrotation
										JOINT Beta:LeftHandIndex3
										{
											OFFSET	3.3911	0.0000	0.0000
											CHANNELS 3 Zrotation Xrotation Yrotation
											End Site
											{
												OFFSET 2.5000 0.0000 0.0000
											}
										}
									}
								}
								JOINT Beta:LeftHandRing1
								{
									OFFSET	10.3252	0.3211	-1.8755
									CHANNELS 3 Zrotation Xrotation Yrotation
									JOINT Beta:LeftHandRing2
									{
										OFFSET	5.4452	0.0000	0.0000
										CHANNELS 3 Zrotation Xrotation Yrotation
										JOINT Beta:LeftHandRing3
										{
											OFFSET	3.7132	0.0000	0.0000
											CHANNELS 3 Zrotation Xrotation Yrotation
											End Site
											{
												OFFSET 2.0000 0.0000 0.0000
											}
										}
									}
								}
								JOINT Beta:LeftHandPinky1
								{
									OFFSET	10.0130	-0.0783	-3.9671
									CHANNELS 3 Zrotation Xrotation Yrotation
									JOINT Beta:LeftHandPinky2
									{
										OFFSET	3.6763	0.0000	0.0000
										CHANNELS 3 Zrotation Xrotation Yrotation
										JOINT Beta:LeftHandPinky3
										{
											OFFSET	2.8113	0.0000	0.0000
											CHANNELS 3 Zrotation Xrotation Yrotation
											End Site
											{
												OFFSET 2.9000 0.0000 0.0000
											}
										}
									}
								}
							}
						}
					}
				}
				JOINT Beta:RightShoulder
				{
					OFFSET	-6.1402	10.1870	-3.7932
					CHANNELS 3 Zrotation Xrotation Yrotation
					JOINT Beta:RightArm
					{
						OFFSET	-12.3231	-1.1130	-1.7935
						CHANNELS 3 Zrotation Xrotation Yrotation
						JOINT Beta:RightForeArm
						{
							OFFSET	-27.6870	0.0000	0.0000
							CHANNELS 3 Xrotation Zrotation Yrotation
							JOINT Beta:RightHand
							{
								OFFSET	-27.8738	0.0000	0.0000
								CHANNELS 3 Zrotation Yrotation Xrotation
								JOINT Beta:RightHandThumb1
								{
									OFFSET	-2.5178	-0.9367	2.5137
									CHANNELS 3 Zrotation Xrotation Yrotation
									JOINT Beta:RightHandThumb2
									{
										OFFSET	-3.2638	-1.0870	2.9669
										CHANNELS 3 Zrotation Xrotation Yrotation
										JOINT Beta:RightHandThumb3
										{
											OFFSET	-4.4165	-1.3703	2.1350
											CHANNELS 3 Zrotation Xrotation Yrotation
											End Site
											{
												OFFSET -2.6000 -1.0000 1.0000
											}
										}
									}
								}
								JOINT Beta:RightHandIndex1
								{
									OFFSET	-10.4665	0.4896	2.7120
									CHANNELS 3 Zrotation Xrotation Yrotation
									JOINT Beta:RightHandIndex2
									{
										OFFSET	-5.3768	0.0000	0.0000
										CHANNELS 3 Zrotation Xrotation Yrotation
										JOINT Beta:RightHandIndex3
										{
											OFFSET	-3.3855	0.0000	0.0000
											CHANNELS 3 Zrotation Xrotation Yrotation
											End Site
											{
												OFFSET -2.6000 0.0000 0.0000
											}
										}
									}
								}
								JOINT Beta:RightHandMiddle1
								{
									OFFSET	-10.7596	0.4896	0.4278
									CHANNELS 3 Zrotation Xrotation Yrotation
									JOINT Beta:RightHandMiddle2
									{
										OFFSET	-5.6168	0.0000	0.0000
										CHANNELS 3 Zrotation Xrotation Yrotation
										JOINT Beta:RightHandMiddle3
										{
											OFFSET	-3.7364	0.0000	0.0000
											CHANNELS 3 Zrotation Xrotation Yrotation
											End Site
											{
												OFFSET -2.3000 0.0000 0.0000
											}
										}
									}
								}
								JOINT Beta:RightHandRing1
								{
									OFFSET	-10.4702	0.3879	-1.9363
									CHANNELS 3 Zrotation Xrotation Yrotation
									JOINT Beta:RightHandRing2
									{
										OFFSET	-5.4013	0.0000	0.0000
										CHANNELS 3 Zrotation Xrotation Yrotation
										JOINT Beta:RightHandRing3
										{
											OFFSET	-3.3916	0.0000	0.0000
											CHANNELS 3 Zrotation Xrotation Yrotation
											End Site
											{
												OFFSET -2.2000 0.0000 0.0000
											}
										}
									}
								}
								JOINT Beta:RightHandPinky1
								{
									OFFSET	-9.9715	-0.1191	-3.9540
									CHANNELS 3 Zrotation Xrotation Yrotation
									JOINT Beta:RightHandPinky2
									{
										OFFSET	-3.6528	0.0000	0.0000
										CHANNELS 3 Zrotation Xrotation Yrotation
										JOINT Beta:RightHandPinky3
										{
											OFFSET	-2.7820	0.0000	0.0000
											CHANNELS 3 Zrotation Xrotation Yrotation
											End Site
											{
												OFFSET -2.9000 0.0000 0.0000
											}
										}
									}
								}
							}
						}
					}
				}
			}
		}
	}
	JOINT Beta:LeftUpLeg
	{
		OFFSET	9.6338	-3.2733	0.0000
		CHANNELS 3 Xrotation Yrotation Zrotation
		JOINT Beta:LeftLeg
		{
			OFFSET	0.0000	-41.7300	-1.7300
			CHANNELS 3 Xrotation Yrotation Zrotation
			JOINT Beta:LeftFoot
			{
				OFFSET	0.0126	-39.1900	-0.8477
				CHANNELS 3 Xrotation Yrotation Zrotation
				JOINT Beta:LeftToeBase
				{
					OFFSET	-0.1833	-12.1931	8.2823
					CHANNELS 3 Xrotation Yrotation Zrotation
					End Site
					{
						OFFSET 0.0000 0.0000 10.1681
					}
				}
			}
		}
	}
	JOINT Beta:RightUpLeg
	{
		OFFSET	-9.6338	-3.2733	0.0000
		CHANNELS 3 Xrotation Yrotation Zrotation
		JOINT Beta:RightLeg
		{
			OFFSET	0.0000	-41.7300	-1.7300
			CHANNELS 3 Xrotation Yrotation Zrotation
			JOINT Beta:RightFoot
			{
				OFFSET	0.0126	-39.1900	-0.8477
				CHANNELS 3 Xrotation Yrotation Zrotation
				JOINT Beta:RightToeBase
				{
					OFFSET	-0.1833	-12.1931	8.2823
					CHANNELS 3 Xrotation Yrotation Zrotation
					End Site
					{
						OFFSET 0.0032 0.0000 10.1681
					}
				}
			}
		}
	}
}
MOTION
Frames: 4
Frame Time: 0.0333333
-86.7069 95.1097 0.7682 -65.8252 7.7427 1.0045 5.9360 6.8034 -0.6837 4.2987 4.6536 -0.8805 4.2782 4.6792 -0.8553 4.6988 6.0600 0.4386 -0.0000 0.0000 -0.0000 -5.8624 35.6649 -6.5492 -9.5719 0.2408 0.5088 -63.2760 17.5227 -9.3770 -0.0000 0.0000 -14.4091 -6.5122 -4.9993 11.2187 21.1938 36.1341 -12.3699 -6.9220 2.7593 7.7349 -1.8919 -10.0000 3.1960 -33.9580 0.0000 -3.6160 -25.1303 0.0000 0.0000 -20.9180 0.0000 0.0000 -19.5368 0.0080 -10.7543 -28.8742 -0.0000 -0.0000 -18.4431 0.0000 0.0000 -30.3680 0.0000 -1.8069 -32.1476 0.0000 -0.0000 -33.9314 -0.0000 -0.0000 -27.0391 -0.0155 -1.8718 -23.1964 0.0000 -0.0000 -24.8545 0.0000 -0.0000 9.6681 2.0226 7.0982 45.5687 29.0915 21.3031 -0.0000 -0.0000 17.4768 -1.0141 0.6758 3.4460 5.5542 6.6080 -7.3220 -17.8353 6.3006 5.2927 -10.5075 10.0000 9.0885 21.2665 -0.0000 6.2047 12.0598 -0.0000 0.0000 12.3025 -0.0000 -0.0000 28.0354 -0.0000 2.0253 18.5442 0.0000 -0.0000 11.0685 0.0000 0.0000 29.6307 -0.0000 -1.9958 23.4213 0.0000 0.0000 19.8551 -0.0000 0.0000 33.1929 -0.0026 0.4301 24.2423 -0.0000 -0.0000 16.0758 -0.0000 0.0000 -17.2821 6.9921 2.6564 19.3495 -8.3734 -0.3507 -10.0548 -4.5568 -0.6693 -5.3844 -0.0000 -0.0000 -37.3694 -10.4401 -8.8566 46.7506 1.6947 0.2628 -5.2419 -0.3372 1.7936 -7.5688 -0.0000 0.0000 
-91.5616 94.8702 1.0405 -65.3256 7.9839 1.4124 5.8727 5.9023 -0.8905 4.2314 4.4833 -0.6936 4.2183 4.5001 -0.6654 4.3837 6.0885 0.6375 -0.0000 0.0000 -0.0000 -6.2485 35.9771 -6.8632 -9.4382 0.1603 -0.2960 -62.9427 17.6333 -10.5741 -0.0000 0.0000 -16.9229 -6.7469 -5.4399 12.0578 21.1938 36.1341 -12.3699 -7.3200 3.6484 7.5672 -1.8667 -10.0000 3.1201 -34.5802 0.0000 -3.5904 -25.1841 -0.0000 -0.0000 -20.9724 -0.0000 0.0000 -20.9702 0.0080 -10.7574 -28.9064 0.0000 0.0000 -18.4757 -0.0000 -0.0000 -31.0404 0.0000 -1.9993 -32.0906 0.0000 0.0000 -33.8734 -0.0000 0.0000 -27.4616 -0.0155 -2.5493 -23.3760 0.0000 -0.0000 -24.9197 -0.0000 -0.0000 9.7188 2.1133 6.5011 47.3033 28.5617 16.1006 0.0000 0.0000 20.0301 -0.7256 1.3084 1.8317 5.5542 6.6080 -7.3220 -17.8603 6.5671 5.6873 -10.5115 10.0000 9.1511 21.2088 0.0000 6.1961 12.0731 -0.0000 0.0000 12.3159 0.0000 0.0000 27.9868 0.0000 1.9292 18.5430 -0.0000 -0.0000 11.0673 0.0000 0.0000 29.5980 0.0000 -2.0514 23.4132 0.0000 0.0000 19.8466 -0.0000 -0.0000 33.1065 -0.0026 0.4360 24.2091 -0.0000 -0.0000 16.0412 0.0000 0.0000 -13.6571 7.5403 3.5662 17.6005 -8.9163 -0.4555 -12.4422 -5.0748 -1.8921 -5.3853 -0.0000 -0.0000 -37.8581 -8.2360 -10.4859 32.4835 1.9345 0.2036 -4.7314 -0.5015 4.2578 -5.9489 0.0000 0.0000 
-96.7551 93.9434 1.2223 -64.2701 8.2334 2.7091 5.7095 4.4799 -1.9875 4.0434 4.1898 -0.8091 4.0445 4.1908 -0.7847 3.9840 6.1605 0.8430 -0.0000 0.0000 -0.0000 -6.8632 36.3218 -6.8180 -9.2529 0.0825 -1.1944 -61.8524 17.2960 -11.6214 -0.0000 0.0000 -19.4417 -6.7686 -5.7422 12.7081 21.1938 36.1341 -12.3699 -7.9691 5.0973 7.1486 -1.8290 -10.0000 2.9927 -35.5215 -0.0000 -3.5093 -25.2965 0.0000 -0.0000 -21.0862 0.0000 0.0000 -23.4196 0.0124 -10.7415 -28.8573 -0.0000 -0.0000 -18.4260 0.0000 -0.0000 -32.1397 0.0000 -2.3619 -31.9750 0.0000 -0.0000 -33.7557 -0.0000 0.0000 -27.9150 -0.0155 -3.4572 -23.4255 0.0000 -0.0000 -25.0754 0.0000 0.0000 9.7516 2.2184 5.8749 49.6142 27.9627 11.0172 -0.0000 -0.0000 22.6389 -0.4432 1.1306 0.9354 5.5542 6.6080 -7.3220 -17.6763 7.7060 6.2616 -10.5833 10.0000 9.4735 21.4891 -0.0000 6.0430 12.0903 0.0000 -0.0000 12.3332 -0.0000 0.0000 28.0982 -0.0000 1.7138 18.5551 0.0000 0.0000 11.0795 -0.0000 -0.0000 29.7813 0.0000 -2.1079 23.3542 -0.0000 0.0000 19.7866 -0.0000 -0.0000 33.1806 -0.0026 0.5374 24.1074 -0.0000 -0.0000 15.9357 -0.0000 -0.0000 -10.7776 7.8128 3.9018 17.7590 -10.0020 -0.4957 -15.9672 -5.1657 -3.1014 -5.3857 -0.0000 -0.0000 -36.8997 -6.0678 -13.5537 16.2649 2.3585 0.0319 -4.9814 -1.0394 9.6157 -3.5092 -0.0000 -0.0000 
-102.4207 92.1247 1.3532 -62.4189 8.0673 4.3737 5.4778 2.6822 -3.2381 3.7622 3.7214 -1.1660 3.7812 3.6984 -1.1562 3.7787 6.2467 1.0484 -0.0000 0.0000 -0.0000 -7.7690 36.6075 -6.4408 -9.2666 0.0547 -2.3560 -60.4085 16.5956 -12.5342 -0.0000 -0.0000 -21.7757 -6.5170 -6.0315 12.8007 21.1938 36.1341 -12.3699 -8.7052 6.4775 6.8979 -1.7870 -10.0000 2.8528 -36.3714 0.0000 -3.3803 -25.4124 0.0000 0.0000 -21.2034 0.0000 -0.0000 -26.0532 0.0235 -10.6709 -28.7647 -0.0000 0.0000 -18.3325 -0.0000 -0.0000 -33.3279 0.0000 -2.8069 -31.8224 0.0000 -0.0000 -33.6000 -0.0000 -0.0000 -28.1389 -0.0155 -4.1586 -23.6335 0.0000 0.0000 -25.2998 -0.0000 -0.0000 9.7566 2.3128 5.2154 52.3046 27.0758 6.7906 0.0000 -0.0000 23.8381 -0.1559 0.8801 1.1684 5.5542 6.6080 -7.3220 -17.3554 8.9735 6.8831 -10.7508 10.0000 10.0898 22.2385 0.0070 5.6945 12.1040 0.0000 -0.0000 12.3471 0.0000 -0.0000 28.4598 0.0000 1.4491 18.5731 -0.0000 0.0000 11.0975 -0.0000 0.0000 30.2531 -0.0000 -2.1600 23.2758 -0.0000 0.0000 19.7070 0.0000 -0.0000 33.4111 -0.0026 0.7080 23.9619 -0.0000 0.0000 15.7848 0.0000 -0.0000 -9.2121 9.4345 5.0189 21.4547 -10.0022 -0.6435 -21.5550 -8.3398 -5.0906 -5.4262 -0.0000 0.0000 -39.4145 -3.9492 -17.7417 9.2815 0.8425 -0.0316 -8.7106 -1.1157 9.0092 -5.5073 0.0000 0.0000 
